<?xml version="1.0" standalone="no"?>
<!DOCTYPE svg PUBLIC "-//W3C//DTD SVG 20010904//EN"
 "http://www.w3.org/TR/2001/REC-SVG-20010904/DTD/svg10.dtd">
<svg version="1.0" xmlns="http://www.w3.org/2000/svg"
 width="100.000000pt" height="100.000000pt" viewBox="0 0 512.000000 512.000000"
 preserveAspectRatio="xMidYMid meet">

<g transform="translate(0.000000,512.000000) scale(0.100000,-0.100000)"
fill="#E50914" stroke="none">
<path d="M2488 5091 l-33 -29 -3 -185 -3 -185 -72 -7 c-817 -78 -1509 -599
-1807 -1360 -56 -145 -106 -345 -126 -512 l-17 -141 -183 -4 c-182 -3 -184 -3
-210 -29 -30 -31 -41 -92 -22 -129 26 -50 67 -60 249 -60 l165 0 18 -142 c59
-479 269 -912 611 -1253 341 -341 774 -553 1252 -611 l142 -17 3 -178 c3 -162
5 -180 24 -206 41 -55 127 -55 168 0 19 26 21 44 24 207 l3 178 72 7 c661 61
1246 415 1610 975 172 264 284 575 323 897 l17 142 178 3 c162 3 180 5 206 24
55 41 55 127 0 168 -26 19 -44 21 -206 24 l-178 3 -17 142 c-123 1002 -925
1779 -1933 1872 l-72 7 -3 185 -3 185 -33 29 c-24 22 -42 29 -72 29 -30 0 -48
-7 -72 -29z m-36 -796 l3 -185 28 -27 c23 -23 36 -28 77 -28 41 0 54 5 77 28
l28 27 3 184 3 184 42 -4 c280 -30 471 -82 692 -189 397 -192 726 -532 907
-936 82 -184 145 -430 161 -626 l4 -53 -164 0 c-193 0 -225 -8 -250 -67 -13
-33 -14 -43 -2 -78 23 -66 53 -75 250 -75 l166 0 -4 -52 c-22 -273 -121 -586
-258 -817 -169 -283 -436 -542 -722 -702 -224 -124 -513 -211 -770 -232 l-53
-4 0 166 c0 197 -9 227 -75 250 -35 12 -45 11 -78 -2 -59 -25 -67 -57 -67
-251 l0 -164 -42 5 c-395 43 -673 144 -971 353 -121 85 -353 317 -439 440
-201 286 -324 621 -351 958 l-4 52 164 0 c193 0 225 8 250 67 13 33 14 43 2
78 -23 66 -53 75 -251 75 l-166 0 4 43 c38 357 132 635 304 897 191 290 462
529 769 677 194 93 426 160 632 182 46 4 87 9 91 10 4 0 8 -82 10 -184z"/>
<path d="M2487 3620 c-222 -39 -383 -262 -348 -481 38 -233 257 -396 482 -360
282 46 442 341 324 598 -79 174 -271 276 -458 243z m171 -229 c75 -39 112
-101 112 -191 0 -128 -82 -210 -210 -210 -128 0 -210 82 -210 210 0 90 37 152
115 193 43 23 146 22 193 -2z"/>
<path d="M2135 2550 c-201 -42 -359 -191 -410 -387 -10 -40 -15 -108 -15 -226
l0 -169 29 -29 c23 -23 38 -29 71 -29 93 0 110 33 110 218 0 167 13 221 73
295 30 36 63 62 112 87 l68 35 386 0 386 0 67 -33 c73 -36 124 -87 160 -161
20 -40 24 -66 28 -211 6 -207 17 -230 110 -230 33 0 48 6 71 29 l29 29 0 169
c0 119 -4 186 -15 228 -44 169 -168 302 -341 367 -57 21 -73 22 -469 24 -225
1 -428 -1 -450 -6z"/>
</g>
</svg>
